<svg width="24" height="25" viewBox="0 0 24 25" fill="none" xmlns="http://www.w3.org/2000/svg">
<g clip-path="url(#clip0_9_28)">
<path d="M0 2.75C0 2.55109 0.0790176 2.36032 0.21967 2.21967C0.360322 2.07902 0.551088 2 0.75 2H3C3.1673 2.00005 3.32977 2.05603 3.4616 2.15904C3.59342 2.26205 3.68701 2.40618 3.7275 2.5685L4.335 5H21.75C21.8601 5.0001 21.9689 5.02445 22.0685 5.07133C22.1682 5.1182 22.2563 5.18644 22.3266 5.27121C22.3969 5.35597 22.4477 5.45518 22.4753 5.56178C22.5029 5.66838 22.5068 5.77976 22.4865 5.888L20.2365 17.888C20.2043 18.0599 20.1131 18.2151 19.9786 18.3268C19.8442 18.4386 19.6749 18.4998 19.5 18.5H6C5.82515 18.4998 5.65585 18.4386 5.52137 18.3268C5.38688 18.2151 5.29567 18.0599 5.2635 17.888L3.015 5.9105L2.415 3.5H0.75C0.551088 3.5 0.360322 3.42098 0.21967 3.28033C0.0790176 3.13968 0 2.94891 0 2.75ZM4.653 6.5L6.6225 17H18.8775L20.847 6.5H4.653ZM7.5 18.5C6.70435 18.5 5.94129 18.8161 5.37868 19.3787C4.81607 19.9413 4.5 20.7044 4.5 21.5C4.5 22.2956 4.81607 23.0587 5.37868 23.6213C5.94129 24.1839 6.70435 24.5 7.5 24.5C8.29565 24.5 9.05871 24.1839 9.62132 23.6213C10.1839 23.0587 10.5 22.2956 10.5 21.5C10.5 20.7044 10.1839 19.9413 9.62132 19.3787C9.05871 18.8161 8.29565 18.5 7.5 18.5ZM18 18.5C17.2043 18.5 16.4413 18.8161 15.8787 19.3787C15.3161 19.9413 15 20.7044 15 21.5C15 22.2956 15.3161 23.0587 15.8787 23.6213C16.4413 24.1839 17.2043 24.5 18 24.5C18.7956 24.5 19.5587 24.1839 20.1213 23.6213C20.6839 23.0587 21 22.2956 21 21.5C21 20.7044 20.6839 19.9413 20.1213 19.3787C19.5587 18.8161 18.7956 18.5 18 18.5ZM7.5 20C7.89782 20 8.27936 20.158 8.56066 20.4393C8.84196 20.7206 9 21.1022 9 21.5C9 21.8978 8.84196 22.2794 8.56066 22.5607C8.27936 22.842 7.89782 23 7.5 23C7.10217 23 6.72064 22.842 6.43934 22.5607C6.15804 22.2794 6 21.8978 6 21.5C6 21.1022 6.15804 20.7206 6.43934 20.4393C6.72064 20.158 7.10217 20 7.5 20ZM18 20C18.3978 20 18.7794 20.158 19.0607 20.4393C19.342 20.7206 19.5 21.1022 19.5 21.5C19.5 21.8978 19.342 22.2794 19.0607 22.5607C18.7794 22.842 18.3978 23 18 23C17.6022 23 17.2206 22.842 16.9393 22.5607C16.658 22.2794 16.5 21.8978 16.5 21.5C16.5 21.1022 16.658 20.7206 16.9393 20.4393C17.2206 20.158 17.6022 20 18 20Z" fill="#1E1E1E"/>
</g>
<defs>
<clipPath id="clip0_9_28">
<rect width="24" height="24" fill="white" transform="translate(0 0.5)"/>
</clipPath>
</defs>
</svg>
