<svg width="24" height="25" viewBox="0 0 24 25" fill="none" xmlns="http://www.w3.org/2000/svg">
<g clip-path="url(#clip0_9_32)">
<path d="M24.6 16.25C24.6 16.0511 24.5052 15.8603 24.3364 15.7197C24.1676 15.579 23.9387 15.5 23.7 15.5H18.3C18.0613 15.5 17.8324 15.579 17.6636 15.7197C17.4948 15.8603 17.4 16.0511 17.4 16.25C17.4 16.4489 17.4948 16.6397 17.6636 16.7803C17.8324 16.921 18.0613 17 18.3 17H23.7C23.9387 17 24.1676 16.921 24.3364 16.7803C24.5052 16.6397 24.6 16.4489 24.6 16.25ZM24.6 11.75C24.6 11.5511 24.5052 11.3603 24.3364 11.2197C24.1676 11.079 23.9387 11 23.7 11H11.1C10.8613 11 10.6324 11.079 10.4636 11.2197C10.2948 11.3603 10.2 11.5511 10.2 11.75C10.2 11.9489 10.2948 12.1397 10.4636 12.2803C10.6324 12.421 10.8613 12.5 11.1 12.5H23.7C23.9387 12.5 24.1676 12.421 24.3364 12.2803C24.5052 12.1397 24.6 11.9489 24.6 11.75ZM24.6 7.25C24.6 7.05109 24.5052 6.86032 24.3364 6.71967C24.1676 6.57902 23.9387 6.5 23.7 6.5H3.9C3.66131 6.5 3.43239 6.57902 3.2636 6.71967C3.09482 6.86032 3 7.05109 3 7.25C3 7.44891 3.09482 7.63968 3.2636 7.78033C3.43239 7.92098 3.66131 8 3.9 8H23.7C23.9387 8 24.1676 7.92098 24.3364 7.78033C24.5052 7.63968 24.6 7.44891 24.6 7.25Z" fill="#1E1E1E"/>
</g>
<defs>
<clipPath id="clip0_9_32">
<rect width="24" height="24" fill="white" transform="translate(0 0.5)"/>
</clipPath>
</defs>
</svg>
