<svg width="24" height="25" viewBox="0 0 24 25" fill="none" xmlns="http://www.w3.org/2000/svg">
<path d="M12 12.5C13.1935 12.5 14.3381 12.0259 15.182 11.182C16.0259 10.3381 16.5 9.19347 16.5 8C16.5 6.80653 16.0259 5.66193 15.182 4.81802C14.3381 3.97411 13.1935 3.5 12 3.5C10.8065 3.5 9.66193 3.97411 8.81802 4.81802C7.97411 5.66193 7.5 6.80653 7.5 8C7.5 9.19347 7.97411 10.3381 8.81802 11.182C9.66193 12.0259 10.8065 12.5 12 12.5ZM15 8C15 8.79565 14.6839 9.55871 14.1213 10.1213C13.5587 10.6839 12.7956 11 12 11C11.2044 11 10.4413 10.6839 9.87868 10.1213C9.31607 9.55871 9 8.79565 9 8C9 7.20435 9.31607 6.44129 9.87868 5.87868C10.4413 5.31607 11.2044 5 12 5C12.7956 5 13.5587 5.31607 14.1213 5.87868C14.6839 6.44129 15 7.20435 15 8ZM21 20C21 21.5 19.5 21.5 19.5 21.5H4.5C4.5 21.5 3 21.5 3 20C3 18.5 4.5 14 12 14C19.5 14 21 18.5 21 20ZM19.5 19.994C19.4985 19.625 19.269 18.515 18.252 17.498C17.274 16.52 15.4335 15.5 12 15.5C8.565 15.5 6.726 16.52 5.748 17.498C4.731 18.515 4.503 19.625 4.5 19.994H19.5Z" fill="#1E1E1E"/>
</svg>
